<?xml version="1.0" encoding="UTF-8" standalone="no"?>
<!-- Created with Inkscape (http://www.inkscape.org/) -->

<svg
   xmlns:dc="http://purl.org/dc/elements/1.1/"
   xmlns:cc="http://creativecommons.org/ns#"
   xmlns:rdf="http://www.w3.org/1999/02/22-rdf-syntax-ns#"
   xmlns:svg="http://www.w3.org/2000/svg"
   xmlns="http://www.w3.org/2000/svg"
   xmlns:sodipodi="http://sodipodi.sourceforge.net/DTD/sodipodi-0.dtd"
   xmlns:inkscape="http://www.inkscape.org/namespaces/inkscape"
   width="26.824203mm"
   height="11.566949mm"
   viewBox="0 0 26.824203 11.566949"
   version="1.1"
   id="svg1217"
   inkscape:version="0.92.2 (5c3e80d, 2017-08-06)"
   sodipodi:docname="itu.svg">
  <defs
     id="defs1211" />
  <sodipodi:namedview
     id="base"
     pagecolor="#ffffff"
     bordercolor="#666666"
     borderopacity="1.0"
     inkscape:pageopacity="0.0"
     inkscape:pageshadow="2"
     inkscape:zoom="44.8"
     inkscape:cx="28.449217"
     inkscape:cy="30.553578"
     inkscape:document-units="mm"
     inkscape:current-layer="text5138"
     showgrid="false"
     fit-margin-top="0"
     fit-margin-left="0"
     fit-margin-right="0"
     fit-margin-bottom="0"
     inkscape:window-width="1680"
     inkscape:window-height="987"
     inkscape:window-x="-8"
     inkscape:window-y="-8"
     inkscape:window-maximized="1" />
  <metadata
     id="metadata1214">
    <rdf:RDF>
      <cc:Work
         rdf:about="">
        <dc:format>image/svg+xml</dc:format>
        <dc:type
           rdf:resource="http://purl.org/dc/dcmitype/StillImage" />
        <dc:title />
      </cc:Work>
    </rdf:RDF>
  </metadata>
  <g
     inkscape:label="Ebene 1"
     inkscape:groupmode="layer"
     id="layer1"
     transform="translate(-44.796235,-35.704615)">
    <g
       id="g5295"
       transform="translate(20.454553,-240.75294)">
      <g
         transform="translate(3.3928636,-0.08378532)"
         id="text5134"
         style="font-style:normal;font-variant:normal;font-weight:500;font-stretch:normal;font-size:4.23333311px;line-height:6.61458302px;font-family:Roboto;-inkscape-font-specification:'Roboto Medium';font-variant-ligatures:normal;font-variant-caps:normal;font-variant-numeric:normal;font-feature-settings:normal;text-align:start;letter-spacing:0px;word-spacing:0px;writing-mode:lr-tb;text-anchor:start;fill:#000000;fill-opacity:1;stroke:none;stroke-width:0.26458332"
         aria-label="Innovation">
        <path
           inkscape:connector-curvature="0"
           id="path5190"
           style="stroke-width:0.26458332"
           d="m 23.575738,279.62747 h -0.520899 v -3.00963 h 0.520899 z" />
        <path
           inkscape:connector-curvature="0"
           id="path5192"
           style="stroke-width:0.26458332"
           d="m 24.640272,277.39092 0.01447,0.25838 q 0.248047,-0.29973 0.651123,-0.29973 0.698666,0 0.711068,0.79996 v 1.47794 h -0.502295 v -1.44901 q 0,-0.2129 -0.09302,-0.31419 -0.09095,-0.10335 -0.299724,-0.10335 -0.303857,0 -0.452685,0.27492 v 1.59163 h -0.502295 v -2.23655 z" />
        <path
           inkscape:connector-curvature="0"
           id="path5194"
           style="stroke-width:0.26458332"
           d="m 26.996717,277.39092 0.01447,0.25838 q 0.248047,-0.29973 0.651123,-0.29973 0.698665,0 0.711067,0.79996 v 1.47794 h -0.502295 v -1.44901 q 0,-0.2129 -0.09302,-0.31419 -0.09095,-0.10335 -0.299723,-0.10335 -0.303858,0 -0.452686,0.27492 v 1.59163 h -0.502295 v -2.23655 z" />
        <path
           inkscape:connector-curvature="0"
           id="path5196"
           style="stroke-width:0.26458332"
           d="m 28.79299,278.48852 q 0,-0.32866 0.130224,-0.59117 0.130225,-0.26459 0.365869,-0.40515 0.235645,-0.14263 0.541569,-0.14263 0.452686,0 0.733806,0.29146 0.283186,0.29146 0.305924,0.77308 l 0.0021,0.11782 q 0,0.33073 -0.128157,0.59118 -0.126091,0.26045 -0.363802,0.40308 -0.235645,0.14262 -0.545704,0.14262 -0.473356,0 -0.75861,-0.31419 -0.283186,-0.31626 -0.283186,-0.84129 z m 0.502294,0.0434 q 0,0.3452 0.142627,0.54157 0.142627,0.1943 0.396875,0.1943 0.254248,0 0.394808,-0.19843 0.142627,-0.19844 0.142627,-0.58085 0,-0.33899 -0.146761,-0.53743 -0.144694,-0.19844 -0.394808,-0.19844 -0.24598,0 -0.390674,0.19637 -0.144694,0.1943 -0.144694,0.58291 z" />
        <path
           sodipodi:nodetypes="cccccccc"
           inkscape:connector-curvature="0"
           id="path5198"
           style="stroke-width:0.26458332"
           d="m 32.056873,278.99082 0.473356,-1.5999 h 0.518832 l -0.75009,2.2449 -0.502967,-0.008 -0.739586,-2.23655 h 0.520898 z" />
        <path
           inkscape:connector-curvature="0"
           id="path5200"
           style="stroke-width:0.26458332"
           d="m 34.663432,279.62747 q -0.03307,-0.0641 -0.05788,-0.20877 -0.239778,0.25011 -0.587044,0.25011 -0.33693,0 -0.549837,-0.19223 -0.212907,-0.19224 -0.212907,-0.47543 0,-0.3576 0.264583,-0.54777 0.266651,-0.19223 0.760677,-0.19223 h 0.307992 v -0.14676 q 0,-0.17364 -0.09715,-0.27699 -0.09715,-0.10542 -0.295589,-0.10542 -0.171566,0 -0.28112,0.0868 -0.109554,0.0847 -0.109554,0.21704 h -0.502295 q 0,-0.18397 0.121957,-0.34313 0.121956,-0.16123 0.330729,-0.25218 0.21084,-0.091 0.469222,-0.091 0.392741,0 0.626318,0.19844 0.233578,0.19637 0.239779,0.55397 v 1.00873 q 0,0.30179 0.08475,0.48162 v 0.0351 z m -0.551904,-0.36173 q 0.148828,0 0.279052,-0.0723 0.132292,-0.0724 0.198438,-0.1943 v -0.42168 h -0.270785 q -0.279052,0 -0.419612,0.0971 -0.14056,0.0971 -0.14056,0.27492 0,0.14469 0.09508,0.23151 0.09715,0.0847 0.258383,0.0847 z" />
        <path
           inkscape:connector-curvature="0"
           id="path5202"
           style="stroke-width:0.26458332"
           d="m 36.246798,276.84728 v 0.54364 h 0.394808 v 0.37207 h -0.394808 v 1.2485 q 0,0.12816 0.04961,0.18603 0.05168,0.0558 0.181901,0.0558 0.08682,0 0.1757,-0.0207 v 0.38861 q -0.171566,0.0475 -0.330729,0.0475 -0.578776,0 -0.578776,-0.63872 v -1.2671 h -0.367936 v -0.37207 h 0.367936 v -0.54364 z" />
        <path
           inkscape:connector-curvature="0"
           id="path5204"
           style="stroke-width:0.26458332"
           d="m 37.557313,279.62747 h -0.502295 v -2.23655 h 0.502295 z m -0.533301,-2.8174 q 0,-0.11575 0.07235,-0.19223 0.07441,-0.0765 0.21084,-0.0765 0.136426,0 0.21084,0.0765 0.07441,0.0765 0.07441,0.19223 0,0.11369 -0.07441,0.19017 -0.07441,0.0744 -0.21084,0.0744 -0.136426,0 -0.21084,-0.0744 -0.07235,-0.0765 -0.07235,-0.19017 z" />
        <path
           inkscape:connector-curvature="0"
           id="path5206"
           style="stroke-width:0.26458332"
           d="m 38.012065,278.48852 q 0,-0.32866 0.130224,-0.59117 0.130225,-0.26459 0.36587,-0.40515 0.235644,-0.14263 0.541569,-0.14263 0.452685,0 0.733805,0.29146 0.283187,0.29146 0.305924,0.77308 l 0.0021,0.11782 q 0,0.33073 -0.128157,0.59118 -0.126091,0.26045 -0.363802,0.40308 -0.235645,0.14262 -0.545703,0.14262 -0.473356,0 -0.75861,-0.31419 -0.283187,-0.31626 -0.283187,-0.84129 z m 0.502295,0.0434 q 0,0.3452 0.142627,0.54157 0.142627,0.1943 0.396875,0.1943 0.254248,0 0.394808,-0.19843 0.142626,-0.19844 0.142626,-0.58085 0,-0.33899 -0.146761,-0.53743 -0.144694,-0.19844 -0.394807,-0.19844 -0.24598,0 -0.390674,0.19637 -0.144694,0.1943 -0.144694,0.58291 z" />
        <path
           inkscape:connector-curvature="0"
           id="path5208"
           style="stroke-width:0.26458332"
           d="m 40.98656,277.39092 0.01447,0.25838 q 0.248046,-0.29973 0.651123,-0.29973 0.698665,0 0.711067,0.79996 v 1.47794 h -0.502295 v -1.44901 q 0,-0.2129 -0.09302,-0.31419 -0.09095,-0.10335 -0.299724,-0.10335 -0.303857,0 -0.452685,0.27492 v 1.59163 h -0.502295 v -2.23655 z" />
      </g>
      <g
         transform="translate(0.74302433,0.34431334)"
         id="text5138"
         style="font-style:normal;font-variant:normal;font-weight:500;font-stretch:normal;font-size:4.23333311px;line-height:6.61458302px;font-family:Roboto;-inkscape-font-specification:'Roboto Medium';font-variant-ligatures:normal;font-variant-caps:normal;font-variant-numeric:normal;font-feature-settings:normal;text-align:start;letter-spacing:0px;word-spacing:0px;writing-mode:lr-tb;text-anchor:start;fill:#000000;fill-opacity:1;stroke:none;stroke-width:0.26458332"
         aria-label="through">
        <path
           sodipodi:nodetypes="cccccscsccsscccccc"
           inkscape:connector-curvature="0"
           id="path5175"
           style="stroke-width:0.26458332"
           d="m 31.023216,279.04582 c 0,-0.0709 0.0036,1.84766 0.0036,1.84766 h 0.394808 v 0.37207 H 31.02678 v 1.2485 c 0,0.0854 0.01654,0.14745 0.04961,0.18604 0.03445,0.0372 0.09509,0.0558 0.181901,0.0558 0.05788,0 0.116447,-0.007 0.1757,-0.0207 v 0.3886 c -0.114377,0.0317 -0.224621,0.0476 -0.33073,0.0476 -0.385851,0 -0.578776,-0.21291 -0.578776,-0.63872 v -1.26711 h -0.367936 v -0.37207 h 0.367936 l -0.0036,-1.69412 c 0.0042,-0.0292 0.508237,-0.23033 0.502331,-0.15355 z" />
        <path
           sodipodi:nodetypes="cscccscscccccc"
           inkscape:connector-curvature="0"
           id="path5177"
           style="stroke-width:0.26458332"
           d="m 32.29802,281.13739 c 0.163987,-0.19017 0.371382,-0.28525 0.622185,-0.28525 0.476801,0 0.718646,0.27216 0.725537,0.81649 v 1.46141 h -0.502295 v -1.44281 c 0,-0.15434 -0.03376,-0.26321 -0.101286,-0.3266 -0.06615,-0.0647 -0.163987,-0.0971 -0.293522,-0.0971 -0.201193,0 -0.3514,0.0896 -0.450619,0.26872 v 1.59784 h -0.502294 l 2.78e-4,-3.50227 0.502967,0.008 z" />
        <path
           inkscape:connector-curvature="0"
           id="path5179"
           style="stroke-width:0.26458332"
           d="m 35.322125,281.35237 q -0.09922,-0.0165 -0.204639,-0.0165 -0.345198,0 -0.465087,0.26458 v 1.52963 h -0.502295 v -2.23656 h 0.479557 l 0.0124,0.25011 q 0.181901,-0.29145 0.504362,-0.29145 0.107487,0 0.177767,0.0289 z" />
        <path
           inkscape:connector-curvature="0"
           id="path5181"
           style="stroke-width:0.26458332"
           d="m 35.470953,281.99109 q 0,-0.32867 0.130225,-0.59118 0.130225,-0.26458 0.365869,-0.40514 0.235645,-0.14263 0.541569,-0.14263 0.452686,0 0.733805,0.29145 0.283187,0.29146 0.305925,0.77308 l 0.0021,0.11783 q 0,0.33072 -0.128158,0.59117 -0.12609,0.26045 -0.363802,0.40308 -0.235644,0.14263 -0.545703,0.14263 -0.473356,0 -0.75861,-0.3142 -0.283187,-0.31626 -0.283187,-0.84129 z m 0.502295,0.0434 q 0,0.34519 0.142627,0.54156 0.142627,0.19431 0.396875,0.19431 0.254248,0 0.394808,-0.19844 0.142627,-0.19844 0.142627,-0.58084 0,-0.339 -0.146761,-0.53744 -0.144694,-0.19844 -0.394808,-0.19844 -0.24598,0 -0.390674,0.19637 -0.144694,0.19431 -0.144694,0.58292 z" />
        <path
           inkscape:connector-curvature="0"
           id="path5183"
           style="stroke-width:0.26458332"
           d="m 39.334283,282.91093 q -0.221175,0.26045 -0.628385,0.26045 -0.363802,0 -0.551904,-0.21291 -0.186036,-0.21291 -0.186036,-0.61598 v -1.44901 h 0.502295 v 1.44281 q 0,0.42581 0.353467,0.42581 0.365869,0 0.494027,-0.26252 v -1.6061 h 0.502295 v 2.23656 h -0.473356 z" />
        <path
           inkscape:connector-curvature="0"
           id="path5185"
           style="stroke-width:0.26458332"
           d="m 40.247922,281.99522 q 0,-0.5209 0.243913,-0.83096 0.24598,-0.31212 0.651123,-0.31212 0.382406,0 0.601514,0.26665 l 0.02274,-0.22531 h 0.452686 v 2.16834 q 0,0.44029 -0.274919,0.69453 -0.272851,0.25425 -0.737939,0.25425 -0.24598,0 -0.481625,-0.10335 -0.233577,-0.10129 -0.355533,-0.26665 l 0.237711,-0.30179 q 0.231511,0.27492 0.570508,0.27492 0.250114,0 0.394808,-0.13643 0.144694,-0.13436 0.144694,-0.39687 v -0.1509 q -0.217041,0.24185 -0.578776,0.24185 -0.392741,0 -0.642855,-0.31213 -0.248047,-0.31212 -0.248047,-0.86403 z m 0.500228,0.0434 q 0,0.33693 0.136426,0.53123 0.138493,0.19224 0.382405,0.19224 0.303858,0 0.450619,-0.26045 v -0.98392 q -0.142627,-0.25425 -0.446485,-0.25425 -0.248046,0 -0.386539,0.19637 -0.136426,0.19637 -0.136426,0.57878 z" />
        <path
           inkscape:connector-curvature="0"
           id="path5187"
           style="stroke-width:0.26458332"
           d="m 43.228618,281.13739 q 0.24598,-0.28525 0.622185,-0.28525 0.715201,0 0.725537,0.81649 v 1.46141 h -0.502295 v -1.44281 q 0,-0.23151 -0.101286,-0.3266 -0.09922,-0.0971 -0.293522,-0.0971 -0.30179,0 -0.450619,0.26872 v 1.59784 h -0.502294 v -3.175 h 0.502294 z" />
      </g>
      <g
         transform="translate(0.74302433,0.34431331)"
         id="text5142"
         style="font-style:normal;font-variant:normal;font-weight:500;font-stretch:normal;font-size:4.23333311px;line-height:6.61458302px;font-family:Roboto;-inkscape-font-specification:'Roboto Medium';font-variant-ligatures:normal;font-variant-caps:normal;font-variant-numeric:normal;font-feature-settings:normal;text-align:start;letter-spacing:0px;word-spacing:0px;writing-mode:lr-tb;text-anchor:start;fill:#000000;fill-opacity:1;stroke:none;stroke-width:0.26458332"
         aria-label="understanding">
        <path
           inkscape:connector-curvature="0"
           id="path5148"
           style="stroke-width:0.26458332"
           d="m 24.964983,286.58051 q -0.221175,0.26045 -0.628385,0.26045 -0.363803,0 -0.551905,-0.2129 -0.186035,-0.21291 -0.186035,-0.61599 v -1.449 h 0.502295 v 1.4428 q 0,0.42582 0.353467,0.42582 0.365869,0 0.494026,-0.26252 v -1.6061 h 0.502295 v 2.23655 h -0.473356 z" />
        <path
           inkscape:connector-curvature="0"
           id="path5150"
           style="stroke-width:0.26458332"
           d="m 26.432593,284.56307 0.01447,0.25838 q 0.248047,-0.29973 0.651123,-0.29973 0.698665,0 0.711067,0.79996 v 1.47794 h -0.502294 v -1.44901 q 0,-0.2129 -0.09302,-0.31419 -0.09095,-0.10335 -0.299723,-0.10335 -0.303858,0 -0.452686,0.27492 v 1.59163 h -0.502295 v -2.23655 z" />
        <path
           inkscape:connector-curvature="0"
           id="path5152"
           style="stroke-width:0.26458332"
           d="m 28.228866,285.66481 q 0,-0.51677 0.239779,-0.82889 0.239778,-0.3142 0.642854,-0.3142 0.355534,0 0.574642,0.24805 v -1.14515 h 0.502295 v 3.175 h -0.454752 l -0.02481,-0.23151 q -0.225309,0.27285 -0.601514,0.27285 -0.392741,0 -0.636653,-0.31626 -0.241846,-0.31626 -0.241846,-0.85989 z m 0.502295,0.0434 q 0,0.34106 0.130224,0.5333 0.132292,0.19017 0.374138,0.19017 0.307991,0 0.450618,-0.27492 v -0.95498 q -0.138493,-0.26872 -0.446484,-0.26872 -0.243913,0 -0.376204,0.1943 -0.132292,0.19224 -0.132292,0.58085 z" />
        <path
           inkscape:connector-curvature="0"
           id="path5154"
           style="stroke-width:0.26458332"
           d="m 31.697388,286.84096 q -0.47749,0 -0.775146,-0.29972 -0.29559,-0.30179 -0.29559,-0.80202 v -0.062 q 0,-0.33486 0.128158,-0.59738 0.130225,-0.26458 0.363802,-0.41134 0.233578,-0.14677 0.520898,-0.14677 0.45682,0 0.704867,0.29146 0.250114,0.29145 0.250114,0.82476 v 0.20257 h -1.46141 q 0.02274,0.27698 0.183969,0.43821 0.163297,0.16123 0.409277,0.16123 0.345198,0 0.562239,-0.27905 l 0.270785,0.25838 q -0.134359,0.20051 -0.359668,0.31213 -0.223242,0.10955 -0.502295,0.10955 z m -0.05994,-1.91616 q -0.206705,0 -0.334863,0.14469 -0.12609,0.1447 -0.16123,0.40308 h 0.957047 v -0.0372 q -0.01654,-0.25218 -0.134359,-0.38033 -0.117822,-0.13023 -0.326595,-0.13023 z" />
        <path
           inkscape:connector-curvature="0"
           id="path5156"
           style="stroke-width:0.26458332"
           d="m 34.157186,285.02195 q -0.09922,-0.0165 -0.204639,-0.0165 -0.345198,0 -0.465088,0.26458 v 1.52962 h -0.502294 v -2.23655 h 0.479557 l 0.0124,0.25011 q 0.181901,-0.29146 0.504362,-0.29146 0.107487,0 0.177767,0.0289 z" />
        <path
           inkscape:connector-curvature="0"
           id="path5158"
           style="stroke-width:0.26458332"
           d="m 35.728149,286.19191 q 0,-0.13436 -0.111621,-0.20464 -0.109554,-0.0703 -0.365869,-0.12403 -0.256315,-0.0537 -0.427881,-0.13642 -0.376204,-0.1819 -0.376204,-0.5271 0,-0.28939 0.243913,-0.48369 0.243913,-0.19431 0.620117,-0.19431 0.401009,0 0.646989,0.19844 0.248047,0.19844 0.248047,0.5147 h -0.502295 q 0,-0.14469 -0.107487,-0.23978 -0.107487,-0.0971 -0.285254,-0.0971 -0.165365,0 -0.270785,0.0765 -0.103352,0.0765 -0.103352,0.20464 0,0.11575 0.09715,0.17983 0.09715,0.0641 0.392741,0.13023 0.295589,0.0641 0.463021,0.15503 0.169499,0.0889 0.250114,0.21497 0.08268,0.12609 0.08268,0.30593 0,0.30179 -0.250114,0.48989 -0.250114,0.18603 -0.655257,0.18603 -0.274919,0 -0.489892,-0.0992 -0.214974,-0.0992 -0.334864,-0.27285 -0.119889,-0.17363 -0.119889,-0.37413 h 0.487825 q 0.01034,0.17776 0.134359,0.27491 0.124024,0.0951 0.328662,0.0951 0.198438,0 0.301791,-0.0744 0.103352,-0.0765 0.103352,-0.19843 z" />
        <path
           inkscape:connector-curvature="0"
           id="path5160"
           style="stroke-width:0.26458332"
           d="m 37.286711,284.01943 v 0.54364 h 0.394808 v 0.37207 h -0.394808 v 1.2485 q 0,0.12816 0.04961,0.18603 0.05168,0.0558 0.181901,0.0558 0.08682,0 0.1757,-0.0207 v 0.38861 q -0.171566,0.0475 -0.330729,0.0475 -0.578776,0 -0.578776,-0.63872 v -1.2671 H 36.41648 v -0.37207 h 0.367936 v -0.54364 z" />
        <path
           inkscape:connector-curvature="0"
           id="path5162"
           style="stroke-width:0.26458332"
           d="m 39.399243,286.79962 q -0.03307,-0.0641 -0.05788,-0.20877 -0.239778,0.25011 -0.587044,0.25011 -0.33693,0 -0.549837,-0.19223 -0.212907,-0.19224 -0.212907,-0.47543 0,-0.3576 0.264583,-0.54777 0.266651,-0.19223 0.760678,-0.19223 h 0.307991 v -0.14676 q 0,-0.17364 -0.09715,-0.27699 -0.09715,-0.10542 -0.295589,-0.10542 -0.171566,0 -0.28112,0.0868 -0.109554,0.0847 -0.109554,0.21704 h -0.502295 q 0,-0.18397 0.121957,-0.34313 0.121956,-0.16123 0.330729,-0.25218 0.21084,-0.091 0.469222,-0.091 0.392741,0 0.626318,0.19844 0.233578,0.19637 0.239779,0.55397 v 1.00873 q 0,0.30179 0.08475,0.48162 v 0.0351 z m -0.551904,-0.36173 q 0.148828,0 0.279053,-0.0723 0.132291,-0.0724 0.198437,-0.1943 v -0.42168 h -0.270784 q -0.279053,0 -0.419613,0.0971 -0.14056,0.0971 -0.14056,0.27492 0,0.14469 0.09508,0.23151 0.09715,0.0847 0.258382,0.0847 z" />
        <path
           inkscape:connector-curvature="0"
           id="path5164"
           style="stroke-width:0.26458332"
           d="m 40.81931,284.56307 0.01447,0.25838 q 0.248047,-0.29973 0.651123,-0.29973 0.698665,0 0.711068,0.79996 v 1.47794 h -0.502295 v -1.44901 q 0,-0.2129 -0.09302,-0.31419 -0.09095,-0.10335 -0.299723,-0.10335 -0.303858,0 -0.452686,0.27492 v 1.59163 h -0.502295 v -2.23655 z" />
        <path
           sodipodi:nodetypes="ccsccccccscccscsccscs"
           inkscape:connector-curvature="0"
           id="path5166"
           style="stroke-width:0.26458332"
           d="m 42.615583,285.66481 c 0,-0.34451 0.07993,-0.62081 0.239779,-0.82889 0.159853,-0.20947 0.374138,-0.3142 0.642855,-0.3142 0.237023,0 0.42857,0.0827 0.574642,0.24805 l 0.0012,-1.7316 0.502295,0.0919 -0.0012,3.66958 h -0.454752 l -0.02481,-0.23151 c -0.150206,0.1819 -0.35071,0.27285 -0.601513,0.27285 -0.261827,0 -0.474045,-0.10542 -0.636654,-0.31626 -0.161231,-0.21084 -0.241846,-0.49747 -0.241846,-0.85989 z m 0.502295,0.0434 c 0,0.22737 0.04341,0.40514 0.130225,0.5333 0.08819,0.12678 0.212906,0.19017 0.374137,0.19017 0.205328,0 0.355534,-0.0916 0.450619,-0.27492 v -0.95498 c -0.09233,-0.17915 -0.241157,-0.26872 -0.446485,-0.26872 -0.162609,0 -0.28801,0.0648 -0.376204,0.1943 -0.08819,0.12816 -0.132292,0.32178 -0.132292,0.58085 z" />
        <path
           inkscape:connector-curvature="0"
           id="path5168"
           style="stroke-width:0.26458332"
           d="m 45.633487,286.79962 h -0.502294 v -2.23655 h 0.502294 z m -0.5333,-2.8174 q 0,-0.11575 0.07235,-0.19223 0.07441,-0.0765 0.210839,-0.0765 0.136426,0 0.21084,0.0765 0.07441,0.0765 0.07441,0.19223 0,0.11369 -0.07441,0.19017 -0.07441,0.0744 -0.21084,0.0744 -0.136425,0 -0.210839,-0.0744 -0.07235,-0.0765 -0.07235,-0.19017 z" />
        <path
           inkscape:connector-curvature="0"
           id="path5170"
           style="stroke-width:0.26458332"
           d="m 46.648412,284.56307 0.01447,0.25838 q 0.248047,-0.29973 0.651123,-0.29973 0.698666,0 0.711068,0.79996 v 1.47794 h -0.502295 v -1.44901 q 0,-0.2129 -0.09302,-0.31419 -0.09095,-0.10335 -0.299724,-0.10335 -0.303857,0 -0.452685,0.27492 v 1.59163 h -0.502295 v -2.23655 z" />
        <path
           inkscape:connector-curvature="0"
           id="path5172"
           style="stroke-width:0.26458332"
           d="m 48.450886,285.66481 q 0,-0.5209 0.243913,-0.83096 0.24598,-0.31213 0.651123,-0.31213 0.382405,0 0.601513,0.26665 l 0.02274,-0.2253 h 0.452686 v 2.16834 q 0,0.44028 -0.274919,0.69453 -0.272852,0.25425 -0.737939,0.25425 -0.24598,0 -0.481625,-0.10335 -0.233577,-0.10129 -0.355534,-0.26666 l 0.237712,-0.30179 q 0.23151,0.27492 0.570508,0.27492 0.250114,0 0.394808,-0.13642 0.144694,-0.13436 0.144694,-0.39688 v -0.15089 q -0.217041,0.24184 -0.578776,0.24184 -0.392741,0 -0.642855,-0.31212 -0.248047,-0.31213 -0.248047,-0.86403 z m 0.500228,0.0434 q 0,0.33693 0.136426,0.53123 0.138492,0.19224 0.382405,0.19224 0.303858,0 0.450619,-0.26045 v -0.98392 q -0.142627,-0.25425 -0.446485,-0.25425 -0.248047,0 -0.386539,0.19637 -0.136426,0.19637 -0.136426,0.57878 z" />
      </g>
    </g>
  </g>
</svg>
